<mxfile host="app.diagrams.net" modified="2024-03-07T13:18:04.935Z" agent="Mozilla/5.0 (Windows NT 10.0; Win64; x64) AppleWebKit/537.36 (KHTML, like Gecko) Chrome/122.0.0.0 Safari/537.36" etag="Lv5Bv4lHCcWAIafvpRar" version="24.0.2" type="github" pages="3">
  <diagram name="Search Flights" id="_4PxHC857vVmuxzUV1pX">
    <mxGraphModel dx="1034" dy="446" grid="1" gridSize="10" guides="1" tooltips="1" connect="1" arrows="1" fold="1" page="1" pageScale="1" pageWidth="850" pageHeight="1100" math="0" shadow="0">
      <root>
        <mxCell id="0" />
        <mxCell id="1" parent="0" />
        <mxCell id="faEDPlh9rDtKGVH22Gkg-1" value="" style="verticalLabelPosition=bottom;html=1;verticalAlign=top;align=center;strokeColor=none;fillColor=#00BEF2;shape=mxgraph.azure.user;" parent="1" vertex="1">
          <mxGeometry x="8" y="216" width="30" height="20" as="geometry" />
        </mxCell>
        <mxCell id="faEDPlh9rDtKGVH22Gkg-2" value="" style="rounded=0;whiteSpace=wrap;html=1;" parent="1" vertex="1">
          <mxGeometry x="227" y="66" width="60" height="320" as="geometry" />
        </mxCell>
        <mxCell id="faEDPlh9rDtKGVH22Gkg-3" value="" style="verticalLabelPosition=bottom;html=1;verticalAlign=top;align=center;strokeColor=none;fillColor=#00BEF2;shape=mxgraph.azure.website_generic;pointerEvents=1;" parent="1" vertex="1">
          <mxGeometry x="86" y="204.75" width="50" height="42.5" as="geometry" />
        </mxCell>
        <mxCell id="faEDPlh9rDtKGVH22Gkg-4" value="" style="sketch=0;points=[[0,0,0],[0.25,0,0],[0.5,0,0],[0.75,0,0],[1,0,0],[0,1,0],[0.25,1,0],[0.5,1,0],[0.75,1,0],[1,1,0],[0,0.25,0],[0,0.5,0],[0,0.75,0],[1,0.25,0],[1,0.5,0],[1,0.75,0]];outlineConnect=0;fontColor=#232F3E;fillColor=#E7157B;strokeColor=#ffffff;dashed=0;verticalLabelPosition=bottom;verticalAlign=top;align=center;html=1;fontSize=12;fontStyle=0;aspect=fixed;shape=mxgraph.aws4.resourceIcon;resIcon=mxgraph.aws4.api_gateway;" parent="1" vertex="1">
          <mxGeometry x="238" y="197" width="38" height="38" as="geometry" />
        </mxCell>
        <mxCell id="faEDPlh9rDtKGVH22Gkg-5" value="" style="endArrow=classic;html=1;rounded=0;" parent="1" edge="1">
          <mxGeometry width="50" height="50" relative="1" as="geometry">
            <mxPoint x="48" y="233.75" as="sourcePoint" />
            <mxPoint x="78" y="234" as="targetPoint" />
          </mxGeometry>
        </mxCell>
        <mxCell id="faEDPlh9rDtKGVH22Gkg-6" value="" style="endArrow=classic;html=1;rounded=0;" parent="1" edge="1">
          <mxGeometry width="50" height="50" relative="1" as="geometry">
            <mxPoint x="108" y="198" as="sourcePoint" />
            <mxPoint x="220" y="148" as="targetPoint" />
            <Array as="points">
              <mxPoint x="108" y="148" />
            </Array>
          </mxGeometry>
        </mxCell>
        <mxCell id="faEDPlh9rDtKGVH22Gkg-7" value="Booking Search&lt;br&gt;i) &lt;b&gt;Cash&lt;/b&gt;&lt;br&gt;II) Redeem&lt;br&gt;iii) Cash+Points" style="text;html=1;strokeColor=none;fillColor=none;align=left;verticalAlign=top;whiteSpace=wrap;rounded=0;fontSize=8;" parent="1" vertex="1">
          <mxGeometry x="150.5" y="197" width="58.5" height="47" as="geometry" />
        </mxCell>
        <mxCell id="faEDPlh9rDtKGVH22Gkg-8" value="" style="endArrow=classic;html=1;rounded=0;entryX=0.5;entryY=1;entryDx=0;entryDy=0;" parent="1" target="faEDPlh9rDtKGVH22Gkg-9" edge="1">
          <mxGeometry width="50" height="50" relative="1" as="geometry">
            <mxPoint x="160" y="148" as="sourcePoint" />
            <mxPoint x="200" y="98" as="targetPoint" />
          </mxGeometry>
        </mxCell>
        <mxCell id="faEDPlh9rDtKGVH22Gkg-9" value="&lt;font style=&quot;font-size: 10px;&quot;&gt;IAM&lt;/font&gt;" style="rounded=0;whiteSpace=wrap;html=1;" parent="1" vertex="1">
          <mxGeometry x="140" y="66" width="40" height="40" as="geometry" />
        </mxCell>
        <mxCell id="faEDPlh9rDtKGVH22Gkg-10" value="" style="endArrow=classic;html=1;rounded=0;" parent="1" edge="1">
          <mxGeometry width="50" height="50" relative="1" as="geometry">
            <mxPoint x="220" y="186" as="sourcePoint" />
            <mxPoint x="140" y="185.75" as="targetPoint" />
          </mxGeometry>
        </mxCell>
        <mxCell id="faEDPlh9rDtKGVH22Gkg-11" value="" style="ellipse;whiteSpace=wrap;html=1;aspect=fixed;" parent="1" vertex="1">
          <mxGeometry x="168" y="177" width="20" height="20" as="geometry" />
        </mxCell>
        <mxCell id="faEDPlh9rDtKGVH22Gkg-12" value="&lt;font style=&quot;font-size: 10px;&quot;&gt;4&lt;/font&gt;" style="text;html=1;strokeColor=none;fillColor=none;align=center;verticalAlign=middle;whiteSpace=wrap;rounded=0;" parent="1" vertex="1">
          <mxGeometry x="163" y="177" width="30" height="20" as="geometry" />
        </mxCell>
        <mxCell id="faEDPlh9rDtKGVH22Gkg-13" value="" style="ellipse;whiteSpace=wrap;html=1;aspect=fixed;" parent="1" vertex="1">
          <mxGeometry x="98" y="153" width="20" height="20" as="geometry" />
        </mxCell>
        <mxCell id="faEDPlh9rDtKGVH22Gkg-14" value="&lt;font style=&quot;font-size: 10px;&quot;&gt;1&lt;/font&gt;" style="text;html=1;strokeColor=none;fillColor=none;align=center;verticalAlign=middle;whiteSpace=wrap;rounded=0;" parent="1" vertex="1">
          <mxGeometry x="93" y="153" width="30" height="20" as="geometry" />
        </mxCell>
        <mxCell id="faEDPlh9rDtKGVH22Gkg-15" value="User logs into SkyPlus/LMS" style="text;html=1;strokeColor=none;fillColor=none;align=left;verticalAlign=top;whiteSpace=wrap;rounded=0;fontSize=8;" parent="1" vertex="1">
          <mxGeometry x="32.5" y="146.5" width="58.5" height="38.5" as="geometry" />
        </mxCell>
        <mxCell id="faEDPlh9rDtKGVH22Gkg-16" value="" style="endArrow=classic;html=1;rounded=0;" parent="1" edge="1">
          <mxGeometry width="50" height="50" relative="1" as="geometry">
            <mxPoint x="132" y="257" as="sourcePoint" />
            <mxPoint x="215" y="278" as="targetPoint" />
            <Array as="points">
              <mxPoint x="132" y="278" />
            </Array>
          </mxGeometry>
        </mxCell>
        <mxCell id="faEDPlh9rDtKGVH22Gkg-17" value="" style="ellipse;whiteSpace=wrap;html=1;aspect=fixed;" parent="1" vertex="1">
          <mxGeometry x="159" y="265" width="20" height="20" as="geometry" />
        </mxCell>
        <mxCell id="faEDPlh9rDtKGVH22Gkg-18" value="&lt;font style=&quot;font-size: 10px;&quot;&gt;5&lt;/font&gt;" style="text;html=1;strokeColor=none;fillColor=none;align=center;verticalAlign=middle;whiteSpace=wrap;rounded=0;" parent="1" vertex="1">
          <mxGeometry x="154" y="265" width="30" height="20" as="geometry" />
        </mxCell>
        <mxCell id="faEDPlh9rDtKGVH22Gkg-19" value="User chooses Cash provides O&amp;amp;D and date for search" style="text;html=1;strokeColor=none;fillColor=none;align=left;verticalAlign=top;whiteSpace=wrap;rounded=0;fontSize=8;" parent="1" vertex="1">
          <mxGeometry x="132.5" y="279.5" width="76.5" height="38.5" as="geometry" />
        </mxCell>
        <mxCell id="faEDPlh9rDtKGVH22Gkg-20" value="&lt;font style=&quot;font-size: 10px;&quot;&gt;LMS Services&lt;/font&gt;" style="rounded=0;whiteSpace=wrap;html=1;" parent="1" vertex="1">
          <mxGeometry x="396" y="94" width="99" height="68" as="geometry" />
        </mxCell>
        <mxCell id="faEDPlh9rDtKGVH22Gkg-21" value="&lt;font style=&quot;font-size: 10px;&quot;&gt;Skyplus Services&lt;/font&gt;" style="rounded=0;whiteSpace=wrap;html=1;" parent="1" vertex="1">
          <mxGeometry x="396" y="274" width="99" height="72" as="geometry" />
        </mxCell>
        <mxCell id="faEDPlh9rDtKGVH22Gkg-22" value="" style="endArrow=classic;html=1;rounded=0;" parent="1" edge="1">
          <mxGeometry width="50" height="50" relative="1" as="geometry">
            <mxPoint x="299" y="142" as="sourcePoint" />
            <mxPoint x="387" y="142" as="targetPoint" />
          </mxGeometry>
        </mxCell>
        <mxCell id="faEDPlh9rDtKGVH22Gkg-23" value="&lt;font style=&quot;font-size: 10px;&quot;&gt;1N API/Services&lt;/font&gt;" style="rounded=0;whiteSpace=wrap;html=1;" parent="1" vertex="1">
          <mxGeometry x="567" y="94" width="121" height="68" as="geometry" />
        </mxCell>
        <mxCell id="faEDPlh9rDtKGVH22Gkg-24" value="" style="ellipse;whiteSpace=wrap;html=1;aspect=fixed;" parent="1" vertex="1">
          <mxGeometry x="329" y="134" width="20" height="20" as="geometry" />
        </mxCell>
        <mxCell id="faEDPlh9rDtKGVH22Gkg-25" value="&lt;font style=&quot;font-size: 10px;&quot;&gt;2&lt;/font&gt;" style="text;html=1;strokeColor=none;fillColor=none;align=center;verticalAlign=middle;whiteSpace=wrap;rounded=0;" parent="1" vertex="1">
          <mxGeometry x="324" y="134" width="30" height="20" as="geometry" />
        </mxCell>
        <mxCell id="faEDPlh9rDtKGVH22Gkg-26" value="getUserFQTV, Points,Tier, past and future travel, nominees and entitlements" style="text;html=1;strokeColor=none;fillColor=none;align=left;verticalAlign=top;whiteSpace=wrap;rounded=0;fontSize=8;" parent="1" vertex="1">
          <mxGeometry x="300" y="150" width="73.25" height="60" as="geometry" />
        </mxCell>
        <mxCell id="faEDPlh9rDtKGVH22Gkg-27" value="getFlights,Fare and SSR in cash is called" style="text;html=1;strokeColor=none;fillColor=none;align=left;verticalAlign=top;whiteSpace=wrap;rounded=0;fontSize=8;" parent="1" vertex="1">
          <mxGeometry x="446.75" y="216" width="82.75" height="33" as="geometry" />
        </mxCell>
        <mxCell id="faEDPlh9rDtKGVH22Gkg-28" value="" style="endArrow=classic;html=1;rounded=0;" parent="1" edge="1">
          <mxGeometry width="50" height="50" relative="1" as="geometry">
            <mxPoint x="295" y="304" as="sourcePoint" />
            <mxPoint x="383" y="304" as="targetPoint" />
          </mxGeometry>
        </mxCell>
        <mxCell id="faEDPlh9rDtKGVH22Gkg-29" value="" style="ellipse;whiteSpace=wrap;html=1;aspect=fixed;" parent="1" vertex="1">
          <mxGeometry x="325" y="294" width="20" height="20" as="geometry" />
        </mxCell>
        <mxCell id="faEDPlh9rDtKGVH22Gkg-30" value="&lt;font style=&quot;font-size: 10px;&quot;&gt;6&lt;/font&gt;" style="text;html=1;strokeColor=none;fillColor=none;align=center;verticalAlign=middle;whiteSpace=wrap;rounded=0;" parent="1" vertex="1">
          <mxGeometry x="320" y="294" width="30" height="20" as="geometry" />
        </mxCell>
        <mxCell id="faEDPlh9rDtKGVH22Gkg-31" value="getFlights, Fare and disc prices for adds on is called" style="text;html=1;strokeColor=none;fillColor=none;align=left;verticalAlign=top;whiteSpace=wrap;rounded=0;fontSize=8;" parent="1" vertex="1">
          <mxGeometry x="289.38" y="267" width="109.25" height="18" as="geometry" />
        </mxCell>
        <mxCell id="faEDPlh9rDtKGVH22Gkg-33" value="" style="endArrow=classic;html=1;rounded=0;" parent="1" edge="1">
          <mxGeometry width="50" height="50" relative="1" as="geometry">
            <mxPoint x="440" y="268" as="sourcePoint" />
            <mxPoint x="604" y="163" as="targetPoint" />
            <Array as="points">
              <mxPoint x="440" y="249" />
              <mxPoint x="484" y="249" />
              <mxPoint x="604" y="249" />
              <mxPoint x="604" y="190" />
            </Array>
          </mxGeometry>
        </mxCell>
        <mxCell id="faEDPlh9rDtKGVH22Gkg-34" value="" style="ellipse;whiteSpace=wrap;html=1;aspect=fixed;" parent="1" vertex="1">
          <mxGeometry x="542" y="241" width="20" height="20" as="geometry" />
        </mxCell>
        <mxCell id="faEDPlh9rDtKGVH22Gkg-35" value="&lt;font style=&quot;font-size: 10px;&quot;&gt;7&lt;/font&gt;" style="text;html=1;strokeColor=none;fillColor=none;align=center;verticalAlign=middle;whiteSpace=wrap;rounded=0;" parent="1" vertex="1">
          <mxGeometry x="537" y="240" width="30" height="20" as="geometry" />
        </mxCell>
        <mxCell id="faEDPlh9rDtKGVH22Gkg-36" value="" style="endArrow=classic;html=1;rounded=0;" parent="1" edge="1">
          <mxGeometry width="50" height="50" relative="1" as="geometry">
            <mxPoint x="385" y="332" as="sourcePoint" />
            <mxPoint x="297" y="332" as="targetPoint" />
            <Array as="points">
              <mxPoint x="352" y="332" />
              <mxPoint x="319" y="332" />
            </Array>
          </mxGeometry>
        </mxCell>
        <mxCell id="faEDPlh9rDtKGVH22Gkg-37" value="" style="ellipse;whiteSpace=wrap;html=1;aspect=fixed;" parent="1" vertex="1">
          <mxGeometry x="325" y="322" width="20" height="20" as="geometry" />
        </mxCell>
        <mxCell id="faEDPlh9rDtKGVH22Gkg-38" value="&lt;font style=&quot;font-size: 10px;&quot;&gt;8.2&lt;/font&gt;" style="text;html=1;strokeColor=none;fillColor=none;align=center;verticalAlign=middle;whiteSpace=wrap;rounded=0;" parent="1" vertex="1">
          <mxGeometry x="320" y="322" width="30" height="20" as="geometry" />
        </mxCell>
        <mxCell id="faEDPlh9rDtKGVH22Gkg-39" value="" style="endArrow=classic;html=1;rounded=0;" parent="1" edge="1">
          <mxGeometry width="50" height="50" relative="1" as="geometry">
            <mxPoint x="204" y="348" as="sourcePoint" />
            <mxPoint x="121" y="288" as="targetPoint" />
            <Array as="points">
              <mxPoint x="171" y="348" />
              <mxPoint x="121" y="348" />
            </Array>
          </mxGeometry>
        </mxCell>
        <mxCell id="faEDPlh9rDtKGVH22Gkg-40" value="" style="ellipse;whiteSpace=wrap;html=1;aspect=fixed;" parent="1" vertex="1">
          <mxGeometry x="144" y="338" width="20" height="20" as="geometry" />
        </mxCell>
        <mxCell id="faEDPlh9rDtKGVH22Gkg-41" value="&lt;font style=&quot;font-size: 10px;&quot;&gt;9&lt;/font&gt;" style="text;html=1;strokeColor=none;fillColor=none;align=center;verticalAlign=middle;whiteSpace=wrap;rounded=0;" parent="1" vertex="1">
          <mxGeometry x="139" y="338" width="30" height="20" as="geometry" />
        </mxCell>
        <mxCell id="faEDPlh9rDtKGVH22Gkg-42" value="" style="endArrow=classic;html=1;rounded=0;" parent="1" edge="1">
          <mxGeometry width="50" height="50" relative="1" as="geometry">
            <mxPoint x="418" y="90" as="sourcePoint" />
            <mxPoint x="297" y="79" as="targetPoint" />
            <Array as="points">
              <mxPoint x="418" y="79" />
            </Array>
          </mxGeometry>
        </mxCell>
        <mxCell id="faEDPlh9rDtKGVH22Gkg-43" value="User&#39;s FQTV, Points,Tier, past travel and bookings, nominees, entitlements are returned" style="text;html=1;strokeColor=none;fillColor=none;align=left;verticalAlign=top;whiteSpace=wrap;rounded=0;fontSize=8;" parent="1" vertex="1">
          <mxGeometry x="309.75" y="33" width="120.25" height="52" as="geometry" />
        </mxCell>
        <mxCell id="faEDPlh9rDtKGVH22Gkg-44" value="" style="ellipse;whiteSpace=wrap;html=1;aspect=fixed;" parent="1" vertex="1">
          <mxGeometry x="340" y="68" width="20" height="20" as="geometry" />
        </mxCell>
        <mxCell id="faEDPlh9rDtKGVH22Gkg-45" value="&lt;font style=&quot;font-size: 10px;&quot;&gt;3&lt;/font&gt;" style="text;html=1;strokeColor=none;fillColor=none;align=center;verticalAlign=middle;whiteSpace=wrap;rounded=0;" parent="1" vertex="1">
          <mxGeometry x="335" y="68" width="30" height="20" as="geometry" />
        </mxCell>
        <mxCell id="faEDPlh9rDtKGVH22Gkg-46" value="Assumptions:&lt;br&gt;1. RM will create different SSR fee for different tier roles&lt;br&gt;2. Different Roles will be created for different tier in Navitaire&lt;br&gt;&amp;nbsp; &amp;nbsp;&amp;nbsp;" style="text;html=1;strokeColor=none;fillColor=none;align=left;verticalAlign=top;whiteSpace=wrap;rounded=0;fontSize=8;" parent="1" vertex="1">
          <mxGeometry x="91" y="565" width="275.25" height="117" as="geometry" />
        </mxCell>
        <mxCell id="faEDPlh9rDtKGVH22Gkg-47" value="The flights and fare and discounted SSR charges and prospective points are returned" style="text;html=1;strokeColor=none;fillColor=none;align=left;verticalAlign=top;whiteSpace=wrap;rounded=0;fontSize=8;" parent="1" vertex="1">
          <mxGeometry x="118" y="358" width="79.25" height="48" as="geometry" />
        </mxCell>
        <mxCell id="faEDPlh9rDtKGVH22Gkg-52" value="Flights, Fare and disc prices for adds, prospective points are returned" style="text;html=1;strokeColor=none;fillColor=none;align=left;verticalAlign=top;whiteSpace=wrap;rounded=0;fontSize=8;" parent="1" vertex="1">
          <mxGeometry x="290.38" y="340" width="109.25" height="18" as="geometry" />
        </mxCell>
        <mxCell id="faEDPlh9rDtKGVH22Gkg-53" value="SSR prices will be per the role driven by the tier&amp;nbsp;&amp;nbsp;" style="text;html=1;strokeColor=none;fillColor=none;align=left;verticalAlign=top;whiteSpace=wrap;rounded=0;fontSize=8;" parent="1" vertex="1">
          <mxGeometry x="537" y="177" width="64" height="33" as="geometry" />
        </mxCell>
        <mxCell id="aKaEGkwlU3AJ4gyw9-Xe-2" value="" style="endArrow=classic;html=1;rounded=0;" edge="1" parent="1">
          <mxGeometry width="50" height="50" relative="1" as="geometry">
            <mxPoint x="398.63" y="255.75" as="sourcePoint" />
            <mxPoint x="399" y="166" as="targetPoint" />
          </mxGeometry>
        </mxCell>
        <mxCell id="aKaEGkwlU3AJ4gyw9-Xe-3" value="" style="ellipse;whiteSpace=wrap;html=1;aspect=fixed;" vertex="1" parent="1">
          <mxGeometry x="389" y="190" width="20" height="20" as="geometry" />
        </mxCell>
        <mxCell id="aKaEGkwlU3AJ4gyw9-Xe-4" value="&lt;font style=&quot;font-size: 9px;&quot;&gt;8.1&lt;/font&gt;" style="text;html=1;strokeColor=none;fillColor=none;align=center;verticalAlign=middle;whiteSpace=wrap;rounded=0;" vertex="1" parent="1">
          <mxGeometry x="384" y="189" width="30" height="20" as="geometry" />
        </mxCell>
        <mxCell id="aKaEGkwlU3AJ4gyw9-Xe-5" value="Prospective Points for fares and addons earning are calculated" style="text;html=1;strokeColor=none;fillColor=none;align=left;verticalAlign=top;whiteSpace=wrap;rounded=0;fontSize=8;" vertex="1" parent="1">
          <mxGeometry x="413.75" y="181" width="82.75" height="33" as="geometry" />
        </mxCell>
      </root>
    </mxGraphModel>
  </diagram>
  <diagram id="38m__XhlMEfYshrvxFyG" name="Book">
    <mxGraphModel dx="1034" dy="446" grid="1" gridSize="10" guides="1" tooltips="1" connect="1" arrows="1" fold="1" page="1" pageScale="1" pageWidth="850" pageHeight="1100" math="0" shadow="0">
      <root>
        <mxCell id="0" />
        <mxCell id="1" parent="0" />
        <mxCell id="FekZpOzBv7ZHByke9AiK-1" value="" style="verticalLabelPosition=bottom;html=1;verticalAlign=top;align=center;strokeColor=none;fillColor=#00BEF2;shape=mxgraph.azure.user;" parent="1" vertex="1">
          <mxGeometry x="8" y="190" width="30" height="20" as="geometry" />
        </mxCell>
        <mxCell id="FekZpOzBv7ZHByke9AiK-2" value="" style="rounded=0;whiteSpace=wrap;html=1;" parent="1" vertex="1">
          <mxGeometry x="227" y="60" width="60" height="330" as="geometry" />
        </mxCell>
        <mxCell id="FekZpOzBv7ZHByke9AiK-3" value="" style="verticalLabelPosition=bottom;html=1;verticalAlign=top;align=center;strokeColor=none;fillColor=#00BEF2;shape=mxgraph.azure.website_generic;pointerEvents=1;" parent="1" vertex="1">
          <mxGeometry x="86" y="178.75" width="50" height="42.5" as="geometry" />
        </mxCell>
        <mxCell id="FekZpOzBv7ZHByke9AiK-4" value="" style="sketch=0;points=[[0,0,0],[0.25,0,0],[0.5,0,0],[0.75,0,0],[1,0,0],[0,1,0],[0.25,1,0],[0.5,1,0],[0.75,1,0],[1,1,0],[0,0.25,0],[0,0.5,0],[0,0.75,0],[1,0.25,0],[1,0.5,0],[1,0.75,0]];outlineConnect=0;fontColor=#232F3E;fillColor=#E7157B;strokeColor=#ffffff;dashed=0;verticalLabelPosition=bottom;verticalAlign=top;align=center;html=1;fontSize=12;fontStyle=0;aspect=fixed;shape=mxgraph.aws4.resourceIcon;resIcon=mxgraph.aws4.api_gateway;" parent="1" vertex="1">
          <mxGeometry x="238" y="216" width="38" height="38" as="geometry" />
        </mxCell>
        <mxCell id="FekZpOzBv7ZHByke9AiK-5" value="" style="endArrow=classic;html=1;rounded=0;" parent="1" edge="1">
          <mxGeometry width="50" height="50" relative="1" as="geometry">
            <mxPoint x="48" y="207.75" as="sourcePoint" />
            <mxPoint x="78" y="208" as="targetPoint" />
          </mxGeometry>
        </mxCell>
        <mxCell id="FekZpOzBv7ZHByke9AiK-7" value="Booking Search&lt;br&gt;i) &lt;b&gt;Cash&lt;/b&gt;&lt;br&gt;II) Redeem&lt;br&gt;iii) Cash+Points" style="text;html=1;strokeColor=none;fillColor=none;align=left;verticalAlign=top;whiteSpace=wrap;rounded=0;fontSize=8;" parent="1" vertex="1">
          <mxGeometry x="150.5" y="171" width="58.5" height="47" as="geometry" />
        </mxCell>
        <mxCell id="FekZpOzBv7ZHByke9AiK-16" value="" style="endArrow=classic;html=1;rounded=0;" parent="1" edge="1">
          <mxGeometry width="50" height="50" relative="1" as="geometry">
            <mxPoint x="132" y="231" as="sourcePoint" />
            <mxPoint x="215" y="252" as="targetPoint" />
            <Array as="points">
              <mxPoint x="132" y="252" />
            </Array>
          </mxGeometry>
        </mxCell>
        <mxCell id="FekZpOzBv7ZHByke9AiK-17" value="" style="ellipse;whiteSpace=wrap;html=1;aspect=fixed;" parent="1" vertex="1">
          <mxGeometry x="159" y="239" width="20" height="20" as="geometry" />
        </mxCell>
        <mxCell id="FekZpOzBv7ZHByke9AiK-18" value="&lt;font style=&quot;font-size: 10px;&quot;&gt;5&lt;/font&gt;" style="text;html=1;strokeColor=none;fillColor=none;align=center;verticalAlign=middle;whiteSpace=wrap;rounded=0;" parent="1" vertex="1">
          <mxGeometry x="154" y="239" width="30" height="20" as="geometry" />
        </mxCell>
        <mxCell id="FekZpOzBv7ZHByke9AiK-20" value="&lt;font style=&quot;font-size: 10px;&quot;&gt;LMS Services&lt;/font&gt;" style="rounded=0;whiteSpace=wrap;html=1;" parent="1" vertex="1">
          <mxGeometry x="396" y="68" width="99" height="68" as="geometry" />
        </mxCell>
        <mxCell id="FekZpOzBv7ZHByke9AiK-21" value="&lt;font style=&quot;font-size: 10px;&quot;&gt;Skyplus Services&lt;/font&gt;" style="rounded=0;whiteSpace=wrap;html=1;" parent="1" vertex="1">
          <mxGeometry x="396" y="208" width="99" height="72" as="geometry" />
        </mxCell>
        <mxCell id="FekZpOzBv7ZHByke9AiK-23" value="&lt;font style=&quot;font-size: 10px;&quot;&gt;1N API/Services&lt;/font&gt;" style="rounded=0;whiteSpace=wrap;html=1;" parent="1" vertex="1">
          <mxGeometry x="594" y="68" width="121" height="68" as="geometry" />
        </mxCell>
        <mxCell id="FekZpOzBv7ZHByke9AiK-31" value="make booking" style="text;html=1;strokeColor=none;fillColor=none;align=left;verticalAlign=top;whiteSpace=wrap;rounded=0;fontSize=8;" parent="1" vertex="1">
          <mxGeometry x="112.38" y="328" width="67.62" height="32" as="geometry" />
        </mxCell>
        <mxCell id="FekZpOzBv7ZHByke9AiK-32" value="" style="endArrow=classic;html=1;rounded=0;" parent="1" edge="1">
          <mxGeometry width="50" height="50" relative="1" as="geometry">
            <mxPoint x="648" y="140.25" as="sourcePoint" />
            <mxPoint x="500" y="242" as="targetPoint" />
            <Array as="points">
              <mxPoint x="648" y="162.25" />
              <mxPoint x="648" y="198" />
              <mxPoint x="600" y="200" />
              <mxPoint x="600" y="240" />
            </Array>
          </mxGeometry>
        </mxCell>
        <mxCell id="FekZpOzBv7ZHByke9AiK-36" value="" style="endArrow=classic;html=1;rounded=0;" parent="1" edge="1">
          <mxGeometry width="50" height="50" relative="1" as="geometry">
            <mxPoint x="297" y="231" as="sourcePoint" />
            <mxPoint x="385" y="231" as="targetPoint" />
            <Array as="points">
              <mxPoint x="319" y="231" />
              <mxPoint x="352" y="231" />
            </Array>
          </mxGeometry>
        </mxCell>
        <mxCell id="FekZpOzBv7ZHByke9AiK-37" value="" style="ellipse;whiteSpace=wrap;html=1;aspect=fixed;" parent="1" vertex="1">
          <mxGeometry x="325" y="222" width="20" height="20" as="geometry" />
        </mxCell>
        <mxCell id="FekZpOzBv7ZHByke9AiK-38" value="&lt;font style=&quot;font-size: 10px;&quot;&gt;6&lt;/font&gt;" style="text;html=1;strokeColor=none;fillColor=none;align=center;verticalAlign=middle;whiteSpace=wrap;rounded=0;" parent="1" vertex="1">
          <mxGeometry x="320" y="222" width="30" height="20" as="geometry" />
        </mxCell>
        <mxCell id="FekZpOzBv7ZHByke9AiK-46" value="Assumptions:&lt;br&gt;1. RM will create different SSR fee for different tier roles&lt;br&gt;2. Different Roles will be created for different tier in Navitaire&lt;br&gt;&amp;nbsp; &amp;nbsp;&amp;nbsp;" style="text;html=1;strokeColor=none;fillColor=none;align=left;verticalAlign=top;whiteSpace=wrap;rounded=0;fontSize=8;" parent="1" vertex="1">
          <mxGeometry x="91" y="539" width="275.25" height="117" as="geometry" />
        </mxCell>
        <mxCell id="FekZpOzBv7ZHByke9AiK-48" value="" style="endArrow=classic;html=1;rounded=0;" parent="1" edge="1">
          <mxGeometry width="50" height="50" relative="1" as="geometry">
            <mxPoint x="104" y="231" as="sourcePoint" />
            <mxPoint x="210" y="320" as="targetPoint" />
            <Array as="points">
              <mxPoint x="104" y="320" />
            </Array>
          </mxGeometry>
        </mxCell>
        <mxCell id="FekZpOzBv7ZHByke9AiK-49" value="User selects a flight to book" style="text;html=1;strokeColor=none;fillColor=none;align=left;verticalAlign=top;whiteSpace=wrap;rounded=0;fontSize=8;" parent="1" vertex="1">
          <mxGeometry x="125.88" y="259" width="86.25" height="31" as="geometry" />
        </mxCell>
        <mxCell id="FekZpOzBv7ZHByke9AiK-50" value="" style="ellipse;whiteSpace=wrap;html=1;aspect=fixed;" parent="1" vertex="1">
          <mxGeometry x="153" y="311" width="20" height="20" as="geometry" />
        </mxCell>
        <mxCell id="FekZpOzBv7ZHByke9AiK-51" value="&lt;font style=&quot;font-size: 10px;&quot;&gt;9&lt;/font&gt;" style="text;html=1;strokeColor=none;fillColor=none;align=center;verticalAlign=middle;whiteSpace=wrap;rounded=0;" parent="1" vertex="1">
          <mxGeometry x="148" y="311" width="30" height="20" as="geometry" />
        </mxCell>
        <mxCell id="FekZpOzBv7ZHByke9AiK-52" value="pax details are entered" style="text;html=1;strokeColor=none;fillColor=none;align=left;verticalAlign=top;whiteSpace=wrap;rounded=0;fontSize=8;" parent="1" vertex="1">
          <mxGeometry x="290.69" y="206" width="88.62" height="18" as="geometry" />
        </mxCell>
        <mxCell id="FekZpOzBv7ZHByke9AiK-55" value="" style="endArrow=classic;html=1;rounded=0;" parent="1" edge="1">
          <mxGeometry width="50" height="50" relative="1" as="geometry">
            <mxPoint x="290" y="334" as="sourcePoint" />
            <mxPoint x="440" y="290" as="targetPoint" />
            <Array as="points">
              <mxPoint x="440" y="334" />
            </Array>
          </mxGeometry>
        </mxCell>
        <mxCell id="FekZpOzBv7ZHByke9AiK-56" value="" style="ellipse;whiteSpace=wrap;html=1;aspect=fixed;" parent="1" vertex="1">
          <mxGeometry x="336" y="324" width="20" height="20" as="geometry" />
        </mxCell>
        <mxCell id="FekZpOzBv7ZHByke9AiK-57" value="&lt;font style=&quot;font-size: 10px;&quot;&gt;10&lt;/font&gt;" style="text;html=1;strokeColor=none;fillColor=none;align=center;verticalAlign=middle;whiteSpace=wrap;rounded=0;" parent="1" vertex="1">
          <mxGeometry x="331" y="324" width="30" height="20" as="geometry" />
        </mxCell>
        <mxCell id="FekZpOzBv7ZHByke9AiK-58" value="Make a booking" style="text;html=1;strokeColor=none;fillColor=none;align=left;verticalAlign=top;whiteSpace=wrap;rounded=0;fontSize=8;" parent="1" vertex="1">
          <mxGeometry x="360" y="306.5" width="36" height="18" as="geometry" />
        </mxCell>
        <mxCell id="FekZpOzBv7ZHByke9AiK-59" value="" style="endArrow=classic;html=1;rounded=0;" parent="1" edge="1">
          <mxGeometry width="50" height="50" relative="1" as="geometry">
            <mxPoint x="500" y="220" as="sourcePoint" />
            <mxPoint x="627" y="150" as="targetPoint" />
            <Array as="points">
              <mxPoint x="528" y="220" />
              <mxPoint x="560" y="170" />
              <mxPoint x="627" y="170" />
            </Array>
          </mxGeometry>
        </mxCell>
        <mxCell id="FekZpOzBv7ZHByke9AiK-60" value="Make a booking" style="text;html=1;strokeColor=none;fillColor=none;align=left;verticalAlign=top;whiteSpace=wrap;rounded=0;fontSize=8;" parent="1" vertex="1">
          <mxGeometry x="560.38" y="134" width="51.62" height="18" as="geometry" />
        </mxCell>
        <mxCell id="FekZpOzBv7ZHByke9AiK-61" value="" style="ellipse;whiteSpace=wrap;html=1;aspect=fixed;" parent="1" vertex="1">
          <mxGeometry x="564" y="160" width="20" height="20" as="geometry" />
        </mxCell>
        <mxCell id="FekZpOzBv7ZHByke9AiK-62" value="&lt;font style=&quot;font-size: 10px;&quot;&gt;9&lt;/font&gt;" style="text;html=1;strokeColor=none;fillColor=none;align=center;verticalAlign=middle;whiteSpace=wrap;rounded=0;" parent="1" vertex="1">
          <mxGeometry x="559" y="160" width="30" height="20" as="geometry" />
        </mxCell>
        <mxCell id="FekZpOzBv7ZHByke9AiK-63" value="" style="ellipse;whiteSpace=wrap;html=1;aspect=fixed;" parent="1" vertex="1">
          <mxGeometry x="612" y="188" width="20" height="20" as="geometry" />
        </mxCell>
        <mxCell id="FekZpOzBv7ZHByke9AiK-64" value="&lt;font style=&quot;font-size: 10px;&quot;&gt;10&lt;/font&gt;" style="text;html=1;strokeColor=none;fillColor=none;align=center;verticalAlign=middle;whiteSpace=wrap;rounded=0;" parent="1" vertex="1">
          <mxGeometry x="607" y="188" width="30" height="20" as="geometry" />
        </mxCell>
        <mxCell id="FekZpOzBv7ZHByke9AiK-65" value="Booking PNR is returned" style="text;html=1;strokeColor=none;fillColor=none;align=left;verticalAlign=top;whiteSpace=wrap;rounded=0;fontSize=8;" parent="1" vertex="1">
          <mxGeometry x="650" y="172" width="70" height="18" as="geometry" />
        </mxCell>
        <mxCell id="FekZpOzBv7ZHByke9AiK-66" value="" style="endArrow=classic;html=1;rounded=0;" parent="1" edge="1">
          <mxGeometry width="50" height="50" relative="1" as="geometry">
            <mxPoint x="460" y="290" as="sourcePoint" />
            <mxPoint x="297" y="378" as="targetPoint" />
            <Array as="points">
              <mxPoint x="460" y="378" />
            </Array>
          </mxGeometry>
        </mxCell>
        <mxCell id="FekZpOzBv7ZHByke9AiK-67" value="Booking PNR is returned" style="text;html=1;strokeColor=none;fillColor=none;align=left;verticalAlign=top;whiteSpace=wrap;rounded=0;fontSize=8;" parent="1" vertex="1">
          <mxGeometry x="473" y="327.5" width="49" height="38.5" as="geometry" />
        </mxCell>
        <mxCell id="FekZpOzBv7ZHByke9AiK-68" value="" style="ellipse;whiteSpace=wrap;html=1;aspect=fixed;" parent="1" vertex="1">
          <mxGeometry x="450" y="336" width="20" height="20" as="geometry" />
        </mxCell>
        <mxCell id="FekZpOzBv7ZHByke9AiK-69" value="&lt;font style=&quot;font-size: 10px;&quot;&gt;11&lt;/font&gt;" style="text;html=1;strokeColor=none;fillColor=none;align=center;verticalAlign=middle;whiteSpace=wrap;rounded=0;" parent="1" vertex="1">
          <mxGeometry x="445" y="336" width="30" height="20" as="geometry" />
        </mxCell>
        <mxCell id="2XWBtIU8GSb7DZmSQsf4-1" value="" style="endArrow=classic;html=1;rounded=0;" edge="1" parent="1">
          <mxGeometry width="50" height="50" relative="1" as="geometry">
            <mxPoint x="411" y="201" as="sourcePoint" />
            <mxPoint x="411" y="140" as="targetPoint" />
          </mxGeometry>
        </mxCell>
        <mxCell id="2XWBtIU8GSb7DZmSQsf4-2" value="validate FF# entered for any pax on pax details" style="text;html=1;strokeColor=none;fillColor=none;align=left;verticalAlign=top;whiteSpace=wrap;rounded=0;fontSize=8;" vertex="1" parent="1">
          <mxGeometry x="346" y="136" width="55" height="18" as="geometry" />
        </mxCell>
        <mxCell id="2XWBtIU8GSb7DZmSQsf4-3" style="edgeStyle=orthogonalEdgeStyle;rounded=0;orthogonalLoop=1;jettySize=auto;html=1;exitX=0.5;exitY=1;exitDx=0;exitDy=0;" edge="1" parent="1" source="2XWBtIU8GSb7DZmSQsf4-2" target="2XWBtIU8GSb7DZmSQsf4-2">
          <mxGeometry relative="1" as="geometry" />
        </mxCell>
        <mxCell id="akrLXTloN2pnzxni7DZP-1" value="" style="ellipse;whiteSpace=wrap;html=1;aspect=fixed;" vertex="1" parent="1">
          <mxGeometry x="401" y="160" width="20" height="20" as="geometry" />
        </mxCell>
        <mxCell id="akrLXTloN2pnzxni7DZP-2" value="&lt;font style=&quot;font-size: 10px;&quot;&gt;7&lt;/font&gt;" style="text;html=1;strokeColor=none;fillColor=none;align=center;verticalAlign=middle;whiteSpace=wrap;rounded=0;" vertex="1" parent="1">
          <mxGeometry x="396" y="160" width="30" height="20" as="geometry" />
        </mxCell>
        <mxCell id="vBPAMBIbmz8ir8NBJScF-2" value="" style="endArrow=classic;html=1;rounded=0;" edge="1" parent="1">
          <mxGeometry width="50" height="50" relative="1" as="geometry">
            <mxPoint x="297" y="263" as="sourcePoint" />
            <mxPoint x="385" y="263" as="targetPoint" />
            <Array as="points">
              <mxPoint x="319" y="263" />
              <mxPoint x="352" y="263" />
            </Array>
          </mxGeometry>
        </mxCell>
        <mxCell id="vBPAMBIbmz8ir8NBJScF-4" value="" style="ellipse;whiteSpace=wrap;html=1;aspect=fixed;" vertex="1" parent="1">
          <mxGeometry x="325" y="252" width="20" height="20" as="geometry" />
        </mxCell>
        <mxCell id="vBPAMBIbmz8ir8NBJScF-5" value="&lt;font style=&quot;font-size: 10px;&quot;&gt;8&lt;/font&gt;" style="text;html=1;strokeColor=none;fillColor=none;align=center;verticalAlign=middle;whiteSpace=wrap;rounded=0;" vertex="1" parent="1">
          <mxGeometry x="320" y="252" width="30" height="20" as="geometry" />
        </mxCell>
        <mxCell id="vBPAMBIbmz8ir8NBJScF-6" value="add-on and seats are chosen" style="text;html=1;strokeColor=none;fillColor=none;align=left;verticalAlign=top;whiteSpace=wrap;rounded=0;fontSize=8;" vertex="1" parent="1">
          <mxGeometry x="300" y="268" width="80" height="18" as="geometry" />
        </mxCell>
        <mxCell id="vBPAMBIbmz8ir8NBJScF-12" value="" style="endArrow=classic;html=1;rounded=0;" edge="1" parent="1">
          <mxGeometry width="50" height="50" relative="1" as="geometry">
            <mxPoint x="460" y="203" as="sourcePoint" />
            <mxPoint x="460" y="142" as="targetPoint" />
          </mxGeometry>
        </mxCell>
        <mxCell id="vBPAMBIbmz8ir8NBJScF-13" value="validate FF# entered for any pax on pax details" style="text;html=1;strokeColor=none;fillColor=none;align=left;verticalAlign=top;whiteSpace=wrap;rounded=0;fontSize=8;" vertex="1" parent="1">
          <mxGeometry x="472" y="138" width="55" height="18" as="geometry" />
        </mxCell>
        <mxCell id="vBPAMBIbmz8ir8NBJScF-14" style="edgeStyle=orthogonalEdgeStyle;rounded=0;orthogonalLoop=1;jettySize=auto;html=1;exitX=0.5;exitY=1;exitDx=0;exitDy=0;" edge="1" parent="1" source="vBPAMBIbmz8ir8NBJScF-13" target="vBPAMBIbmz8ir8NBJScF-13">
          <mxGeometry relative="1" as="geometry" />
        </mxCell>
        <mxCell id="vBPAMBIbmz8ir8NBJScF-15" value="" style="ellipse;whiteSpace=wrap;html=1;aspect=fixed;" vertex="1" parent="1">
          <mxGeometry x="450" y="162" width="20" height="20" as="geometry" />
        </mxCell>
        <mxCell id="vBPAMBIbmz8ir8NBJScF-16" value="&lt;font style=&quot;font-size: 10px;&quot;&gt;7&lt;/font&gt;" style="text;html=1;strokeColor=none;fillColor=none;align=center;verticalAlign=middle;whiteSpace=wrap;rounded=0;" vertex="1" parent="1">
          <mxGeometry x="445" y="162" width="30" height="20" as="geometry" />
        </mxCell>
        <mxCell id="vBPAMBIbmz8ir8NBJScF-19" value="&lt;font style=&quot;font-size: 10px;&quot;&gt;Payment Gateway&lt;/font&gt;" style="rounded=0;whiteSpace=wrap;html=1;" vertex="1" parent="1">
          <mxGeometry x="620" y="238.5" width="121" height="68" as="geometry" />
        </mxCell>
        <mxCell id="vBPAMBIbmz8ir8NBJScF-20" value="" style="endArrow=classic;html=1;rounded=0;" edge="1" parent="1">
          <mxGeometry width="50" height="50" relative="1" as="geometry">
            <mxPoint x="508" y="272" as="sourcePoint" />
            <mxPoint x="600" y="272" as="targetPoint" />
          </mxGeometry>
        </mxCell>
      </root>
    </mxGraphModel>
  </diagram>
  <diagram id="OG_T5JpBHVWgF5xst30U" name="Page-3">
    <mxGraphModel dx="1034" dy="446" grid="1" gridSize="10" guides="1" tooltips="1" connect="1" arrows="1" fold="1" page="1" pageScale="1" pageWidth="850" pageHeight="1100" math="0" shadow="0">
      <root>
        <mxCell id="0" />
        <mxCell id="1" parent="0" />
        <mxCell id="6v8wHm9K5Dv3Bti7e_qM-1" value="" style="verticalLabelPosition=bottom;html=1;verticalAlign=top;align=center;strokeColor=none;fillColor=#00BEF2;shape=mxgraph.azure.user;" vertex="1" parent="1">
          <mxGeometry x="8" y="190" width="30" height="20" as="geometry" />
        </mxCell>
        <mxCell id="6v8wHm9K5Dv3Bti7e_qM-2" value="" style="rounded=0;whiteSpace=wrap;html=1;" vertex="1" parent="1">
          <mxGeometry x="227" y="40" width="60" height="455" as="geometry" />
        </mxCell>
        <mxCell id="6v8wHm9K5Dv3Bti7e_qM-3" value="" style="verticalLabelPosition=bottom;html=1;verticalAlign=top;align=center;strokeColor=none;fillColor=#00BEF2;shape=mxgraph.azure.website_generic;pointerEvents=1;" vertex="1" parent="1">
          <mxGeometry x="86" y="178.75" width="50" height="42.5" as="geometry" />
        </mxCell>
        <mxCell id="6v8wHm9K5Dv3Bti7e_qM-4" value="" style="sketch=0;points=[[0,0,0],[0.25,0,0],[0.5,0,0],[0.75,0,0],[1,0,0],[0,1,0],[0.25,1,0],[0.5,1,0],[0.75,1,0],[1,1,0],[0,0.25,0],[0,0.5,0],[0,0.75,0],[1,0.25,0],[1,0.5,0],[1,0.75,0]];outlineConnect=0;fontColor=#232F3E;fillColor=#E7157B;strokeColor=#ffffff;dashed=0;verticalLabelPosition=bottom;verticalAlign=top;align=center;html=1;fontSize=12;fontStyle=0;aspect=fixed;shape=mxgraph.aws4.resourceIcon;resIcon=mxgraph.aws4.api_gateway;" vertex="1" parent="1">
          <mxGeometry x="238" y="256" width="38" height="38" as="geometry" />
        </mxCell>
        <mxCell id="6v8wHm9K5Dv3Bti7e_qM-5" value="" style="endArrow=classic;html=1;rounded=0;" edge="1" parent="1">
          <mxGeometry width="50" height="50" relative="1" as="geometry">
            <mxPoint x="48" y="207.75" as="sourcePoint" />
            <mxPoint x="78" y="208" as="targetPoint" />
          </mxGeometry>
        </mxCell>
        <mxCell id="6v8wHm9K5Dv3Bti7e_qM-6" value="Booking Search&lt;br&gt;i) &lt;b&gt;Cash&lt;/b&gt;&lt;br&gt;II) Redeem&lt;br&gt;iii) Cash+Points" style="text;html=1;strokeColor=none;fillColor=none;align=left;verticalAlign=top;whiteSpace=wrap;rounded=0;fontSize=8;" vertex="1" parent="1">
          <mxGeometry x="150.5" y="171" width="58.5" height="47" as="geometry" />
        </mxCell>
        <mxCell id="6v8wHm9K5Dv3Bti7e_qM-7" value="" style="endArrow=classic;html=1;rounded=0;" edge="1" parent="1">
          <mxGeometry width="50" height="50" relative="1" as="geometry">
            <mxPoint x="220" y="160" as="sourcePoint" />
            <mxPoint x="140" y="159.75" as="targetPoint" />
          </mxGeometry>
        </mxCell>
        <mxCell id="6v8wHm9K5Dv3Bti7e_qM-8" value="" style="ellipse;whiteSpace=wrap;html=1;aspect=fixed;" vertex="1" parent="1">
          <mxGeometry x="168" y="151" width="20" height="20" as="geometry" />
        </mxCell>
        <mxCell id="6v8wHm9K5Dv3Bti7e_qM-9" value="&lt;font style=&quot;font-size: 10px;&quot;&gt;4&lt;/font&gt;" style="text;html=1;strokeColor=none;fillColor=none;align=center;verticalAlign=middle;whiteSpace=wrap;rounded=0;" vertex="1" parent="1">
          <mxGeometry x="163" y="151" width="30" height="20" as="geometry" />
        </mxCell>
        <mxCell id="6v8wHm9K5Dv3Bti7e_qM-10" value="" style="endArrow=classic;html=1;rounded=0;" edge="1" parent="1">
          <mxGeometry width="50" height="50" relative="1" as="geometry">
            <mxPoint x="132" y="231" as="sourcePoint" />
            <mxPoint x="215" y="252" as="targetPoint" />
            <Array as="points">
              <mxPoint x="132" y="252" />
            </Array>
          </mxGeometry>
        </mxCell>
        <mxCell id="6v8wHm9K5Dv3Bti7e_qM-11" value="" style="ellipse;whiteSpace=wrap;html=1;aspect=fixed;" vertex="1" parent="1">
          <mxGeometry x="159" y="239" width="20" height="20" as="geometry" />
        </mxCell>
        <mxCell id="6v8wHm9K5Dv3Bti7e_qM-12" value="&lt;font style=&quot;font-size: 10px;&quot;&gt;5&lt;/font&gt;" style="text;html=1;strokeColor=none;fillColor=none;align=center;verticalAlign=middle;whiteSpace=wrap;rounded=0;" vertex="1" parent="1">
          <mxGeometry x="154" y="239" width="30" height="20" as="geometry" />
        </mxCell>
        <mxCell id="6v8wHm9K5Dv3Bti7e_qM-13" value="&lt;font style=&quot;font-size: 10px;&quot;&gt;LMS Services&lt;/font&gt;" style="rounded=0;whiteSpace=wrap;html=1;" vertex="1" parent="1">
          <mxGeometry x="396" y="68" width="99" height="68" as="geometry" />
        </mxCell>
        <mxCell id="6v8wHm9K5Dv3Bti7e_qM-14" value="&lt;font style=&quot;font-size: 10px;&quot;&gt;Skyplus Services&lt;/font&gt;" style="rounded=0;whiteSpace=wrap;html=1;" vertex="1" parent="1">
          <mxGeometry x="396" y="248" width="99" height="72" as="geometry" />
        </mxCell>
        <mxCell id="6v8wHm9K5Dv3Bti7e_qM-15" value="" style="endArrow=classic;html=1;rounded=0;" edge="1" parent="1">
          <mxGeometry width="50" height="50" relative="1" as="geometry">
            <mxPoint x="299" y="116" as="sourcePoint" />
            <mxPoint x="387" y="116" as="targetPoint" />
          </mxGeometry>
        </mxCell>
        <mxCell id="6v8wHm9K5Dv3Bti7e_qM-16" value="&lt;font style=&quot;font-size: 10px;&quot;&gt;1N API/Services&lt;/font&gt;" style="rounded=0;whiteSpace=wrap;html=1;" vertex="1" parent="1">
          <mxGeometry x="594" y="68" width="121" height="68" as="geometry" />
        </mxCell>
        <mxCell id="6v8wHm9K5Dv3Bti7e_qM-17" value="" style="ellipse;whiteSpace=wrap;html=1;aspect=fixed;" vertex="1" parent="1">
          <mxGeometry x="329" y="108" width="20" height="20" as="geometry" />
        </mxCell>
        <mxCell id="6v8wHm9K5Dv3Bti7e_qM-18" value="&lt;font style=&quot;font-size: 10px;&quot;&gt;2&lt;/font&gt;" style="text;html=1;strokeColor=none;fillColor=none;align=center;verticalAlign=middle;whiteSpace=wrap;rounded=0;" vertex="1" parent="1">
          <mxGeometry x="324" y="108" width="30" height="20" as="geometry" />
        </mxCell>
        <mxCell id="6v8wHm9K5Dv3Bti7e_qM-19" value="getUserFQTV, Points,Tier, past and future travel" style="text;html=1;strokeColor=none;fillColor=none;align=left;verticalAlign=top;whiteSpace=wrap;rounded=0;fontSize=8;" vertex="1" parent="1">
          <mxGeometry x="314.75" y="124" width="58.5" height="53" as="geometry" />
        </mxCell>
        <mxCell id="6v8wHm9K5Dv3Bti7e_qM-20" value="getFlights,Fare and SSR in cash is called" style="text;html=1;strokeColor=none;fillColor=none;align=left;verticalAlign=top;whiteSpace=wrap;rounded=0;fontSize=8;" vertex="1" parent="1">
          <mxGeometry x="440" y="174" width="72.75" height="33" as="geometry" />
        </mxCell>
        <mxCell id="6v8wHm9K5Dv3Bti7e_qM-21" value="" style="endArrow=classic;html=1;rounded=0;" edge="1" parent="1">
          <mxGeometry width="50" height="50" relative="1" as="geometry">
            <mxPoint x="383" y="278" as="sourcePoint" />
            <mxPoint x="295" y="278" as="targetPoint" />
          </mxGeometry>
        </mxCell>
        <mxCell id="6v8wHm9K5Dv3Bti7e_qM-22" value="" style="ellipse;whiteSpace=wrap;html=1;aspect=fixed;" vertex="1" parent="1">
          <mxGeometry x="325" y="268" width="20" height="20" as="geometry" />
        </mxCell>
        <mxCell id="6v8wHm9K5Dv3Bti7e_qM-23" value="&lt;font style=&quot;font-size: 10px;&quot;&gt;6&lt;/font&gt;" style="text;html=1;strokeColor=none;fillColor=none;align=center;verticalAlign=middle;whiteSpace=wrap;rounded=0;" vertex="1" parent="1">
          <mxGeometry x="320" y="268" width="30" height="20" as="geometry" />
        </mxCell>
        <mxCell id="6v8wHm9K5Dv3Bti7e_qM-24" value="Enter pax details is shown" style="text;html=1;strokeColor=none;fillColor=none;align=left;verticalAlign=top;whiteSpace=wrap;rounded=0;fontSize=8;" vertex="1" parent="1">
          <mxGeometry x="289.38" y="248" width="109.25" height="18" as="geometry" />
        </mxCell>
        <mxCell id="6v8wHm9K5Dv3Bti7e_qM-25" value="" style="endArrow=classic;html=1;rounded=0;" edge="1" parent="1">
          <mxGeometry width="50" height="50" relative="1" as="geometry">
            <mxPoint x="648" y="140.25" as="sourcePoint" />
            <mxPoint x="506" y="286" as="targetPoint" />
            <Array as="points">
              <mxPoint x="648" y="162.25" />
              <mxPoint x="648" y="198" />
              <mxPoint x="648" y="220" />
              <mxPoint x="648" y="242" />
              <mxPoint x="539" y="242" />
            </Array>
          </mxGeometry>
        </mxCell>
        <mxCell id="6v8wHm9K5Dv3Bti7e_qM-26" value="" style="endArrow=classic;html=1;rounded=0;" edge="1" parent="1">
          <mxGeometry width="50" height="50" relative="1" as="geometry">
            <mxPoint x="440" y="239" as="sourcePoint" />
            <mxPoint x="604" y="134" as="targetPoint" />
            <Array as="points">
              <mxPoint x="440" y="220" />
              <mxPoint x="484" y="220" />
              <mxPoint x="517" y="195" />
              <mxPoint x="516" y="161" />
              <mxPoint x="604" y="161" />
            </Array>
          </mxGeometry>
        </mxCell>
        <mxCell id="6v8wHm9K5Dv3Bti7e_qM-27" value="" style="ellipse;whiteSpace=wrap;html=1;aspect=fixed;" vertex="1" parent="1">
          <mxGeometry x="542" y="153" width="20" height="20" as="geometry" />
        </mxCell>
        <mxCell id="6v8wHm9K5Dv3Bti7e_qM-28" value="&lt;font style=&quot;font-size: 10px;&quot;&gt;9&lt;/font&gt;" style="text;html=1;strokeColor=none;fillColor=none;align=center;verticalAlign=middle;whiteSpace=wrap;rounded=0;" vertex="1" parent="1">
          <mxGeometry x="537" y="152" width="30" height="20" as="geometry" />
        </mxCell>
        <mxCell id="6v8wHm9K5Dv3Bti7e_qM-29" value="" style="endArrow=classic;html=1;rounded=0;" edge="1" parent="1">
          <mxGeometry width="50" height="50" relative="1" as="geometry">
            <mxPoint x="297" y="306" as="sourcePoint" />
            <mxPoint x="385" y="306" as="targetPoint" />
            <Array as="points">
              <mxPoint x="319" y="306" />
              <mxPoint x="352" y="306" />
            </Array>
          </mxGeometry>
        </mxCell>
        <mxCell id="6v8wHm9K5Dv3Bti7e_qM-30" value="" style="ellipse;whiteSpace=wrap;html=1;aspect=fixed;" vertex="1" parent="1">
          <mxGeometry x="325" y="296" width="20" height="20" as="geometry" />
        </mxCell>
        <mxCell id="6v8wHm9K5Dv3Bti7e_qM-31" value="&lt;font style=&quot;font-size: 10px;&quot;&gt;10&lt;/font&gt;" style="text;html=1;strokeColor=none;fillColor=none;align=center;verticalAlign=middle;whiteSpace=wrap;rounded=0;" vertex="1" parent="1">
          <mxGeometry x="320" y="296" width="30" height="20" as="geometry" />
        </mxCell>
        <mxCell id="6v8wHm9K5Dv3Bti7e_qM-32" value="" style="endArrow=classic;html=1;rounded=0;" edge="1" parent="1">
          <mxGeometry width="50" height="50" relative="1" as="geometry">
            <mxPoint x="418" y="55" as="sourcePoint" />
            <mxPoint x="297" y="44" as="targetPoint" />
            <Array as="points">
              <mxPoint x="418" y="44" />
            </Array>
          </mxGeometry>
        </mxCell>
        <mxCell id="6v8wHm9K5Dv3Bti7e_qM-33" value="User&#39;s FQTV, Points,Tier, past travel and bookings are returned" style="text;html=1;strokeColor=none;fillColor=none;align=left;verticalAlign=top;whiteSpace=wrap;rounded=0;fontSize=8;" vertex="1" parent="1">
          <mxGeometry x="318" y="47" width="58.5" height="52" as="geometry" />
        </mxCell>
        <mxCell id="6v8wHm9K5Dv3Bti7e_qM-34" value="" style="ellipse;whiteSpace=wrap;html=1;aspect=fixed;" vertex="1" parent="1">
          <mxGeometry x="340" y="33" width="20" height="20" as="geometry" />
        </mxCell>
        <mxCell id="6v8wHm9K5Dv3Bti7e_qM-35" value="&lt;font style=&quot;font-size: 10px;&quot;&gt;3&lt;/font&gt;" style="text;html=1;strokeColor=none;fillColor=none;align=center;verticalAlign=middle;whiteSpace=wrap;rounded=0;" vertex="1" parent="1">
          <mxGeometry x="335" y="33" width="30" height="20" as="geometry" />
        </mxCell>
        <mxCell id="6v8wHm9K5Dv3Bti7e_qM-36" value="Assumptions:&lt;br&gt;1. RM will create different SSR fee for different tier roles&lt;br&gt;2. Different Roles will be created for different tier in Navitaire&lt;br&gt;&amp;nbsp; &amp;nbsp;&amp;nbsp;" style="text;html=1;strokeColor=none;fillColor=none;align=left;verticalAlign=top;whiteSpace=wrap;rounded=0;fontSize=8;" vertex="1" parent="1">
          <mxGeometry x="91" y="539" width="275.25" height="117" as="geometry" />
        </mxCell>
        <mxCell id="6v8wHm9K5Dv3Bti7e_qM-37" value="" style="endArrow=classic;html=1;rounded=0;" edge="1" parent="1">
          <mxGeometry width="50" height="50" relative="1" as="geometry">
            <mxPoint x="104" y="231" as="sourcePoint" />
            <mxPoint x="200" y="330" as="targetPoint" />
            <Array as="points">
              <mxPoint x="104" y="330" />
              <mxPoint x="160" y="330" />
            </Array>
          </mxGeometry>
        </mxCell>
        <mxCell id="6v8wHm9K5Dv3Bti7e_qM-38" value="User selects a flight to book" style="text;html=1;strokeColor=none;fillColor=none;align=left;verticalAlign=top;whiteSpace=wrap;rounded=0;fontSize=8;" vertex="1" parent="1">
          <mxGeometry x="125.88" y="259" width="86.25" height="31" as="geometry" />
        </mxCell>
        <mxCell id="6v8wHm9K5Dv3Bti7e_qM-39" value="" style="ellipse;whiteSpace=wrap;html=1;aspect=fixed;" vertex="1" parent="1">
          <mxGeometry x="138" y="321" width="20" height="20" as="geometry" />
        </mxCell>
        <mxCell id="6v8wHm9K5Dv3Bti7e_qM-40" value="&lt;font style=&quot;font-size: 10px;&quot;&gt;12&lt;/font&gt;" style="text;html=1;strokeColor=none;fillColor=none;align=center;verticalAlign=middle;whiteSpace=wrap;rounded=0;" vertex="1" parent="1">
          <mxGeometry x="133" y="321" width="30" height="20" as="geometry" />
        </mxCell>
        <mxCell id="6v8wHm9K5Dv3Bti7e_qM-41" value="Flights, Fare and disc prices for adds are returned" style="text;html=1;strokeColor=none;fillColor=none;align=left;verticalAlign=top;whiteSpace=wrap;rounded=0;fontSize=8;" vertex="1" parent="1">
          <mxGeometry x="290.38" y="314" width="109.25" height="18" as="geometry" />
        </mxCell>
        <mxCell id="6v8wHm9K5Dv3Bti7e_qM-42" value="SSR prices will be per the role driven by the tier&amp;nbsp;&amp;nbsp;" style="text;html=1;strokeColor=none;fillColor=none;align=left;verticalAlign=top;whiteSpace=wrap;rounded=0;fontSize=8;" vertex="1" parent="1">
          <mxGeometry x="520" y="169" width="94.75" height="33" as="geometry" />
        </mxCell>
        <mxCell id="6v8wHm9K5Dv3Bti7e_qM-43" value="&lt;span style=&quot;font-size: 10px;&quot;&gt;PNR Update&amp;nbsp; Event Service&lt;/span&gt;" style="rounded=0;whiteSpace=wrap;html=1;" vertex="1" parent="1">
          <mxGeometry x="632" y="256" width="99" height="72" as="geometry" />
        </mxCell>
        <mxCell id="6v8wHm9K5Dv3Bti7e_qM-44" value="" style="endArrow=classic;html=1;rounded=0;" edge="1" parent="1">
          <mxGeometry width="50" height="50" relative="1" as="geometry">
            <mxPoint x="290" y="374" as="sourcePoint" />
            <mxPoint x="418" y="330" as="targetPoint" />
            <Array as="points">
              <mxPoint x="369.75" y="375" />
            </Array>
          </mxGeometry>
        </mxCell>
        <mxCell id="6v8wHm9K5Dv3Bti7e_qM-45" value="" style="ellipse;whiteSpace=wrap;html=1;aspect=fixed;" vertex="1" parent="1">
          <mxGeometry x="336" y="364" width="20" height="20" as="geometry" />
        </mxCell>
        <mxCell id="6v8wHm9K5Dv3Bti7e_qM-46" value="&lt;font style=&quot;font-size: 10px;&quot;&gt;13&lt;/font&gt;" style="text;html=1;strokeColor=none;fillColor=none;align=center;verticalAlign=middle;whiteSpace=wrap;rounded=0;" vertex="1" parent="1">
          <mxGeometry x="331" y="364" width="30" height="20" as="geometry" />
        </mxCell>
        <mxCell id="6v8wHm9K5Dv3Bti7e_qM-47" value="Make a booking" style="text;html=1;strokeColor=none;fillColor=none;align=left;verticalAlign=top;whiteSpace=wrap;rounded=0;fontSize=8;" vertex="1" parent="1">
          <mxGeometry x="319.75" y="384" width="109.25" height="18" as="geometry" />
        </mxCell>
        <mxCell id="6v8wHm9K5Dv3Bti7e_qM-48" value="" style="endArrow=classic;html=1;rounded=0;" edge="1" parent="1">
          <mxGeometry width="50" height="50" relative="1" as="geometry">
            <mxPoint x="505" y="259" as="sourcePoint" />
            <mxPoint x="627" y="154" as="targetPoint" />
            <Array as="points">
              <mxPoint x="528" y="220" />
              <mxPoint x="627" y="220" />
            </Array>
          </mxGeometry>
        </mxCell>
        <mxCell id="6v8wHm9K5Dv3Bti7e_qM-49" value="Make a booking" style="text;html=1;strokeColor=none;fillColor=none;align=left;verticalAlign=top;whiteSpace=wrap;rounded=0;fontSize=8;" vertex="1" parent="1">
          <mxGeometry x="548.75" y="217" width="109.25" height="18" as="geometry" />
        </mxCell>
        <mxCell id="6v8wHm9K5Dv3Bti7e_qM-50" value="" style="ellipse;whiteSpace=wrap;html=1;aspect=fixed;" vertex="1" parent="1">
          <mxGeometry x="563" y="206" width="20" height="20" as="geometry" />
        </mxCell>
        <mxCell id="6v8wHm9K5Dv3Bti7e_qM-51" value="&lt;font style=&quot;font-size: 10px;&quot;&gt;13&lt;/font&gt;" style="text;html=1;strokeColor=none;fillColor=none;align=center;verticalAlign=middle;whiteSpace=wrap;rounded=0;" vertex="1" parent="1">
          <mxGeometry x="558" y="206" width="30" height="20" as="geometry" />
        </mxCell>
        <mxCell id="6v8wHm9K5Dv3Bti7e_qM-52" value="" style="ellipse;whiteSpace=wrap;html=1;aspect=fixed;" vertex="1" parent="1">
          <mxGeometry x="565" y="234" width="20" height="20" as="geometry" />
        </mxCell>
        <mxCell id="6v8wHm9K5Dv3Bti7e_qM-53" value="&lt;font style=&quot;font-size: 10px;&quot;&gt;14&lt;/font&gt;" style="text;html=1;strokeColor=none;fillColor=none;align=center;verticalAlign=middle;whiteSpace=wrap;rounded=0;" vertex="1" parent="1">
          <mxGeometry x="560" y="234" width="30" height="20" as="geometry" />
        </mxCell>
        <mxCell id="6v8wHm9K5Dv3Bti7e_qM-54" value="Booking PNR is returned" style="text;html=1;strokeColor=none;fillColor=none;align=left;verticalAlign=top;whiteSpace=wrap;rounded=0;fontSize=8;" vertex="1" parent="1">
          <mxGeometry x="530.75" y="259" width="109.25" height="18" as="geometry" />
        </mxCell>
        <mxCell id="6v8wHm9K5Dv3Bti7e_qM-55" value="" style="endArrow=classic;html=1;rounded=0;" edge="1" parent="1">
          <mxGeometry width="50" height="50" relative="1" as="geometry">
            <mxPoint x="438" y="332" as="sourcePoint" />
            <mxPoint x="297" y="418" as="targetPoint" />
            <Array as="points">
              <mxPoint x="438" y="418" />
            </Array>
          </mxGeometry>
        </mxCell>
        <mxCell id="6v8wHm9K5Dv3Bti7e_qM-56" value="Booking PNR is returned" style="text;html=1;strokeColor=none;fillColor=none;align=left;verticalAlign=top;whiteSpace=wrap;rounded=0;fontSize=8;" vertex="1" parent="1">
          <mxGeometry x="451" y="341.5" width="74.25" height="18" as="geometry" />
        </mxCell>
        <mxCell id="6v8wHm9K5Dv3Bti7e_qM-57" value="" style="ellipse;whiteSpace=wrap;html=1;aspect=fixed;" vertex="1" parent="1">
          <mxGeometry x="426" y="376" width="20" height="20" as="geometry" />
        </mxCell>
        <mxCell id="6v8wHm9K5Dv3Bti7e_qM-58" value="&lt;font style=&quot;font-size: 10px;&quot;&gt;15&lt;/font&gt;" style="text;html=1;strokeColor=none;fillColor=none;align=center;verticalAlign=middle;whiteSpace=wrap;rounded=0;" vertex="1" parent="1">
          <mxGeometry x="421" y="376" width="30" height="20" as="geometry" />
        </mxCell>
        <mxCell id="6v8wHm9K5Dv3Bti7e_qM-59" value="" style="shape=image;html=1;verticalAlign=top;verticalLabelPosition=bottom;labelBackgroundColor=#ffffff;imageAspect=0;aspect=fixed;image=https://cdn4.iconfinder.com/data/icons/aiga-symbol-signs/612/aiga_air_transportation_bg-128.png" vertex="1" parent="1">
          <mxGeometry x="177.25" y="462" width="37" height="37" as="geometry" />
        </mxCell>
        <mxCell id="6v8wHm9K5Dv3Bti7e_qM-60" value="" style="endArrow=classic;html=1;rounded=0;" edge="1" parent="1">
          <mxGeometry width="50" height="50" relative="1" as="geometry">
            <mxPoint x="88" y="231" as="sourcePoint" />
            <mxPoint x="170" y="478" as="targetPoint" />
            <Array as="points">
              <mxPoint x="88" y="478" />
              <mxPoint x="115" y="479" />
            </Array>
          </mxGeometry>
        </mxCell>
        <mxCell id="6v8wHm9K5Dv3Bti7e_qM-61" value="User boards the flight&amp;nbsp;" style="text;html=1;strokeColor=none;fillColor=none;align=left;verticalAlign=top;whiteSpace=wrap;rounded=0;fontSize=8;" vertex="1" parent="1">
          <mxGeometry x="27" y="337" width="55.13" height="27" as="geometry" />
        </mxCell>
        <mxCell id="6v8wHm9K5Dv3Bti7e_qM-62" value="" style="ellipse;whiteSpace=wrap;html=1;aspect=fixed;" vertex="1" parent="1">
          <mxGeometry x="78" y="345" width="20" height="20" as="geometry" />
        </mxCell>
        <mxCell id="6v8wHm9K5Dv3Bti7e_qM-63" value="&lt;font style=&quot;font-size: 10px;&quot;&gt;16&lt;/font&gt;" style="text;html=1;strokeColor=none;fillColor=none;align=center;verticalAlign=middle;whiteSpace=wrap;rounded=0;" vertex="1" parent="1">
          <mxGeometry x="73" y="345" width="30" height="20" as="geometry" />
        </mxCell>
        <mxCell id="6v8wHm9K5Dv3Bti7e_qM-64" value="" style="endArrow=classic;html=1;rounded=0;" edge="1" parent="1">
          <mxGeometry width="50" height="50" relative="1" as="geometry">
            <mxPoint x="664" y="148" as="sourcePoint" />
            <mxPoint x="664" y="253" as="targetPoint" />
          </mxGeometry>
        </mxCell>
        <mxCell id="6v8wHm9K5Dv3Bti7e_qM-65" value="" style="ellipse;whiteSpace=wrap;html=1;aspect=fixed;" vertex="1" parent="1">
          <mxGeometry x="655" y="187" width="20" height="20" as="geometry" />
        </mxCell>
        <mxCell id="6v8wHm9K5Dv3Bti7e_qM-66" value="&lt;font style=&quot;font-size: 10px;&quot;&gt;17&lt;/font&gt;" style="text;html=1;strokeColor=none;fillColor=none;align=center;verticalAlign=middle;whiteSpace=wrap;rounded=0;" vertex="1" parent="1">
          <mxGeometry x="650" y="187" width="30" height="20" as="geometry" />
        </mxCell>
        <mxCell id="6v8wHm9K5Dv3Bti7e_qM-67" value="Boarded event is recieved" style="text;html=1;strokeColor=none;fillColor=none;align=left;verticalAlign=top;whiteSpace=wrap;rounded=0;fontSize=8;" vertex="1" parent="1">
          <mxGeometry x="680" y="173" width="74.25" height="18" as="geometry" />
        </mxCell>
        <mxCell id="6v8wHm9K5Dv3Bti7e_qM-68" value="" style="endArrow=classic;html=1;rounded=0;" edge="1" parent="1">
          <mxGeometry width="50" height="50" relative="1" as="geometry">
            <mxPoint x="748" y="300" as="sourcePoint" />
            <mxPoint x="429" y="66" as="targetPoint" />
            <Array as="points">
              <mxPoint x="748" y="44" />
              <mxPoint x="594" y="44" />
              <mxPoint x="429" y="44" />
            </Array>
          </mxGeometry>
        </mxCell>
        <mxCell id="6v8wHm9K5Dv3Bti7e_qM-69" value="" style="ellipse;whiteSpace=wrap;html=1;aspect=fixed;" vertex="1" parent="1">
          <mxGeometry x="739" y="128" width="20" height="20" as="geometry" />
        </mxCell>
        <mxCell id="6v8wHm9K5Dv3Bti7e_qM-70" value="&lt;font style=&quot;font-size: 10px;&quot;&gt;18&lt;/font&gt;" style="text;html=1;strokeColor=none;fillColor=none;align=center;verticalAlign=middle;whiteSpace=wrap;rounded=0;" vertex="1" parent="1">
          <mxGeometry x="737" y="132" width="24" height="12" as="geometry" />
        </mxCell>
        <mxCell id="6v8wHm9K5Dv3Bti7e_qM-71" value="Credit Points is called (PNR and FFR#)" style="text;html=1;strokeColor=none;fillColor=none;align=left;verticalAlign=top;whiteSpace=wrap;rounded=0;fontSize=8;" vertex="1" parent="1">
          <mxGeometry x="759" y="85" width="74.25" height="18" as="geometry" />
        </mxCell>
        <mxCell id="6v8wHm9K5Dv3Bti7e_qM-72" value="" style="endArrow=classic;html=1;rounded=0;" edge="1" parent="1">
          <mxGeometry width="50" height="50" relative="1" as="geometry">
            <mxPoint x="407" y="143" as="sourcePoint" />
            <mxPoint x="440" y="143" as="targetPoint" />
            <Array as="points">
              <mxPoint x="407" y="176" />
              <mxPoint x="440" y="176" />
            </Array>
          </mxGeometry>
        </mxCell>
        <mxCell id="6v8wHm9K5Dv3Bti7e_qM-73" value="" style="ellipse;whiteSpace=wrap;html=1;aspect=fixed;" vertex="1" parent="1">
          <mxGeometry x="414" y="165" width="20" height="20" as="geometry" />
        </mxCell>
        <mxCell id="6v8wHm9K5Dv3Bti7e_qM-74" value="&lt;font style=&quot;font-size: 10px;&quot;&gt;18&lt;/font&gt;" style="text;html=1;strokeColor=none;fillColor=none;align=center;verticalAlign=middle;whiteSpace=wrap;rounded=0;" vertex="1" parent="1">
          <mxGeometry x="412" y="169" width="24" height="12" as="geometry" />
        </mxCell>
        <mxCell id="6v8wHm9K5Dv3Bti7e_qM-75" value="Points credited and PNR marked as credited" style="text;html=1;strokeColor=none;fillColor=none;align=left;verticalAlign=top;whiteSpace=wrap;rounded=0;fontSize=8;" vertex="1" parent="1">
          <mxGeometry x="351.75" y="167" width="58.5" height="33" as="geometry" />
        </mxCell>
      </root>
    </mxGraphModel>
  </diagram>
</mxfile>
